<svg width="118" height="61" viewBox="0 0 118 61" fill="none" xmlns="http://www.w3.org/2000/svg">
<path d="M52.0779 2.31311C52.0779 2.31311 45.9566 4.00159 33.06 12.8224L32.405 16.2989L44.7729 15.0884C44.7729 15.0884 53.9416 5.34042 53.9416 5.18994C53.9416 5.03946 52.0779 2.31311 52.0779 2.31311Z" fill="#C8DAE5"/>
<path d="M29.9129 13.2L31.7518 12.8227C31.7518 12.8227 32.7845 11.663 33.2631 11.7643C33.7418 11.8657 34.321 11.9411 34.044 12.2429C33.767 12.5447 33.4898 13.9803 32.5326 14.4093C31.5753 14.8382 29.2833 14.4847 29.9129 13.2Z" fill="#121111"/>
<path d="M10.1418 33.4392L12.4194 36.1375C12.4194 36.1375 13.1825 36.334 14.043 35.474C14.9036 34.6119 28.7299 36.4502 28.7299 36.4502C28.7299 36.4502 31.5993 36.4565 33.3205 36.4459C35.0415 36.4354 78.0107 34.5443 78.0107 34.5443L84.6716 36.1375C84.6716 36.1375 87.0592 35.6219 88.2144 35.8163C89.3696 36.0107 102.336 35.4148 102.336 35.4148C102.336 35.4148 106.065 36.0804 106.639 34.9457C107.212 33.8089 111.512 19.0645 100.011 18.8363C88.5096 18.606 36.2004 27.4404 36.2004 27.4404L22.4764 19.3519L10.5434 23.056L10.1418 33.4392Z" fill="#121111"/>
<path d="M117.243 22.2442C117.445 21.1616 115.883 20.6314 115.883 20.6314C115.883 20.6314 116.059 19.952 115.883 18.9184C115.707 17.8848 115.279 14.637 114.8 13.7303C114.321 12.8237 113.962 12.7212 113.962 12.7212L113.868 13.2759C112.926 12.797 109.118 12.269 108.387 12.1443C107.657 12.0173 106.664 11.2599 104.397 8.8675C102.13 6.47507 101.173 3.83091 101.173 3.83091L102.684 2.67256C103.011 1.96642 99.0314 1.7147 99.0314 1.7147C97.6461 1.56322 80.1143 0.0774327 69.8624 0.00169466C59.6103 -0.0740434 51.6503 2.34511 51.2222 2.62133C50.794 2.89755 51.0458 3.72845 51.0458 3.72845C48.8795 4.10714 35.1261 13.5788 34.2698 13.8038C33.4133 14.031 31.2218 14.1335 30.3402 13.7548C29.4585 13.3761 31.398 12.8972 31.398 12.8972C31.398 12.8972 26.5366 12.8482 14.2948 15.7953C2.05277 18.7424 0.742826 21.9167 0.566579 22.5961C0.390145 23.2755 0.13844 24.3336 0.13844 24.3336C-0.0379449 25.2403 0.0631239 28.1874 0.0162917 28.5148C-0.0304937 28.8445 0.0383624 29.094 0.0383624 29.094C0.0238364 29.2143 0.0177062 29.3324 0.0173765 29.446C0.396748 29.4816 0.919778 29.5217 1.30673 29.5217C1.98721 29.5217 3.68835 29.8135 3.60731 30.7714C3.52634 31.7248 3.91534 32.6826 2.53806 32.9566C1.33779 33.1972 0.7283 33.2529 0.323316 32.8007C0.283559 32.8542 0.247245 32.9099 0.217674 32.9722C0.0161491 33.3999 0.599451 33.6138 0.599451 33.6138C2.56424 34.9659 12.4212 36.1376 12.4212 36.1376C11.2275 32.9277 11.1964 22.1417 21.801 22.0682C32.406 21.9924 32.5822 36.4495 32.5822 36.4495L84.6734 36.1376C84.0437 34.213 82.7591 22.5672 94.6233 22.5939C106.487 22.6184 105.59 35.525 105.59 35.525H105.732C107.092 35.525 109.787 34.7142 110.694 34.565C111.601 34.4135 114.573 32.7717 115.631 32.1658C116.689 31.5622 116.412 28.0871 116.412 27.6349C116.412 27.1805 115.883 25.5945 115.984 24.9641C116.084 24.3336 117.042 23.3268 117.243 22.2442Z" fill="#633A28"/>
<path d="M2.53935 32.9562C3.91664 32.6819 3.52765 31.7242 3.60862 30.7705C3.68964 29.8148 1.9885 29.5222 1.30806 29.5222C0.921086 29.5222 0.398059 29.4812 0.0186863 29.4444C0.0154795 30.7091 0.825723 31.5482 0.871943 31.9657C0.915002 32.3525 0.556193 32.4998 0.324626 32.8007C0.729607 33.2529 1.33908 33.1977 2.53935 32.9562Z" fill="#565759"/>
<path d="M102.293 2.42349C102.293 2.42349 102.718 2.64914 103.368 3.04956C104.017 3.44777 112.865 10.5204 114.24 13.1707C115.614 15.821 111.341 14.2215 111.341 14.2215L99.2437 6.94758C99.2437 6.94758 99.6186 3.24867 102.293 2.42349Z" fill="#C8DAE5"/>
<path d="M36.203 15.4138C36.203 15.4138 44.8702 7.35196 51.4883 4.79831C58.1065 2.24466 63.2464 2.0121 75.0043 2.31331C86.7622 2.61452 91.8015 3.78836 93.9179 5.53583C96.0343 7.2833 97.0422 8.37298 96.9078 9.3054C96.7734 10.24 95.9335 12.4903 95.0264 12.6254C94.1194 12.7605 70.9057 13.9365 70.4355 13.9698C69.9651 14.003 36.203 15.4138 36.203 15.4138Z" fill="#191817"/>
<path d="M43.8279 10.3051L43.3575 14.336L69.3261 13.3958L72.5512 3.0486C72.5512 3.0486 58.811 2.41144 54.1417 4.49326C49.4719 6.57729 47.7921 7.18126 43.8279 10.3051Z" fill="#C8DAE5"/>
<path d="M77.3974 3.57319L75.423 10.9726C75.423 10.9726 75.0731 11.9962 75.423 12.197C75.7728 12.3955 86.545 11.9455 86.545 11.9455C86.545 11.9455 94.2429 11.7955 94.518 11.5462C94.7929 11.2969 96.1176 9.75039 95.4428 8.64953C94.768 7.54646 92.9433 5.57196 89.1693 4.77334C85.3954 3.97251 78.2472 3.42318 77.3974 3.57319Z" fill="#C8DAE5"/>
<path d="M64.0679 33.5604C63.6236 33.5604 63.3236 33.5449 63.2747 33.5427L35.5832 33.2792L35.5593 33.1907C33.8626 26.9987 34.2693 20.3262 34.7214 17.6652C35.1291 15.2633 36.3996 15.219 36.4536 15.219C36.5203 15.2168 36.5749 15.2721 36.5758 15.3385C36.5767 15.405 36.5238 15.4603 36.4574 15.4625C36.4098 15.4625 35.3306 15.5201 34.9596 17.7051C34.5126 20.3373 34.1106 26.9123 35.768 33.0379L63.2822 33.3014C63.3378 33.3036 68.3584 33.5427 69.1059 31.9642C69.8907 30.3083 72.7888 18.2364 72.041 13.5277L72.0374 13.5055L72.0425 13.4834L74.5919 2.27709C74.6067 2.21289 74.6716 2.17304 74.7364 2.18854C74.8015 2.20182 74.8422 2.26822 74.8274 2.33021L72.2829 13.5144C73.0236 18.274 70.1134 30.4013 69.3242 32.0683C68.6946 33.3966 65.5648 33.5604 64.0679 33.5604Z" fill="#11100F"/>
<path d="M0.998413 23.9327C0.998413 23.9327 1.08603 22.6777 2.55368 21.8591C4.09297 21.0007 4.91926 20.9189 5.45394 21.2421C5.98858 21.5653 6.73384 22.5559 6.78251 23.1226C6.83114 23.6893 7.00937 24.8709 5.72943 24.9045C4.44938 24.9381 1.209 25.553 0.998413 23.9327Z" fill="#C7E6D9"/>
<path d="M104.961 16.3879C104.961 16.3879 106.352 14.7491 109.042 14.7726C111.733 14.794 114.556 15.4841 114.512 17.2939C114.469 19.1015 110.58 18.5374 110.58 18.5374C110.58 18.5374 103.955 17.9819 104.961 16.3879Z" fill="#ED1D35"/>
<path d="M98.6345 23.6866C98.5787 23.6866 98.5286 23.6487 98.5166 23.5898C98.5027 23.5245 98.5444 23.4613 98.6097 23.4466L106.41 21.7996C108.8 21.5385 115.134 20.6708 115.869 19.801C115.913 19.7484 115.989 19.742 116.04 19.7863C116.091 19.8284 116.097 19.9042 116.054 19.9548C115.106 21.0794 106.801 21.9997 106.448 22.0376L98.6596 23.6845L98.6345 23.6866Z" fill="#11100F"/>
<path d="M41.49 13.8585C41.49 13.8585 40.5935 12.4205 42.8164 11.2251C45.0398 10.0297 45.0398 11.8596 45.0587 12.2516C45.0771 12.6457 45.1706 14.0642 44.4607 14.1963C43.7507 14.3262 41.6654 14.4778 41.49 13.8585Z" fill="#39393A"/>
<path d="M29.3198 20.0944C29.3198 20.0944 29.5231 20.602 29.8615 20.7705C30.2 20.9411 30.7417 20.9074 31.4189 20.8737C32.096 20.8379 33.2812 20.7536 33.0948 20.2292C32.9086 19.7047 29.7769 19.7721 29.3198 20.0944Z" fill="#C7E6D9"/>
<path d="M103.314 32.31C103.314 37.0667 99.4586 40.92 94.7023 40.92C89.9462 40.92 86.0908 37.0667 86.0908 32.31C86.0908 27.5532 89.9462 23.6978 94.7023 23.6978C99.4586 23.6978 103.314 27.5532 103.314 32.31Z" fill="#242227"/>
<path d="M88.2172 32.3076C88.2172 35.9012 91.1298 38.8141 94.7229 38.8141C98.3154 38.8141 101.228 35.9012 101.228 32.3076C101.228 28.7161 98.3154 25.8032 94.7229 25.8032C91.1298 25.8032 88.2172 28.7161 88.2172 32.3076Z" fill="#C2BDBA"/>
<path d="M92.4637 27.9465L93.9689 29.6572C93.9689 29.6572 94.2292 30.0673 94.5849 30.0673C94.9411 30.0673 95.201 29.7808 95.201 29.7808L96.775 27.9465C96.775 27.9465 96.9939 27.6868 96.775 27.5075C96.5561 27.3303 95.7878 27.0706 94.7214 27.0706C93.6542 27.0706 92.0802 27.357 92.4637 27.9465Z" fill="#242227"/>
<path d="M92.4631 36.6712L93.9682 34.9603C93.9682 34.9603 94.229 34.5492 94.5844 34.5492C94.9405 34.5492 95.2007 34.8374 95.2007 34.8374L96.7745 36.6712C96.7745 36.6712 96.9935 36.9291 96.7745 37.1085C96.5555 37.2858 95.7873 37.5478 94.7211 37.5478C93.6538 37.5478 92.08 37.2576 92.4631 36.6712Z" fill="#242227"/>
<path d="M99.1358 30.1338L97.4251 31.6407C97.4251 31.6407 97.0142 31.9003 97.0142 32.2561C97.0142 32.6118 97.3018 32.8715 97.3018 32.8715L99.1358 34.4458C99.1358 34.4458 99.3961 34.6646 99.5736 34.4458C99.7519 34.2271 100.012 33.4583 100.012 32.391C100.012 31.3237 99.7243 29.7515 99.1358 30.1338Z" fill="#242227"/>
<path d="M90.4145 30.1338L92.1254 31.6407C92.1254 31.6407 92.5359 31.9003 92.5359 32.2561C92.5359 32.6118 92.2485 32.8715 92.2485 32.8715L90.4145 34.4458C90.4145 34.4458 90.1542 34.6646 89.9759 34.4458C89.7982 34.2271 89.538 33.4583 89.538 32.391C89.538 31.3237 89.8256 29.7515 90.4145 30.1338Z" fill="#242227"/>
<path d="M30.267 32.31C30.267 37.0667 26.4117 40.92 21.6554 40.92C16.8994 40.92 13.0438 37.0667 13.0438 32.31C13.0438 27.5532 16.8994 23.6978 21.6554 23.6978C26.4117 23.6978 30.267 27.5532 30.267 32.31Z" fill="#242227"/>
<path d="M15.1699 32.3076C15.1699 35.9012 18.0827 38.8141 21.6759 38.8141C25.2683 38.8141 28.1806 35.9012 28.1806 32.3076C28.1806 28.7161 25.2683 25.8032 21.6759 25.8032C18.0827 25.8032 15.1699 28.7161 15.1699 32.3076Z" fill="#C2BDBA"/>
<path d="M19.4194 27.9465L20.9247 29.6572C20.9247 29.6572 21.1848 30.0673 21.5406 30.0673C21.8967 30.0673 22.1568 29.7808 22.1568 29.7808L23.7306 27.9465C23.7306 27.9465 23.9495 27.6868 23.7306 27.5075C23.5117 27.3303 22.7434 27.0706 21.677 27.0706C20.6098 27.0706 19.0359 27.357 19.4194 27.9465Z" fill="#242227"/>
<path d="M19.4193 36.6712L20.9244 34.9603C20.9244 34.9603 21.185 34.5492 21.5406 34.5492C21.8965 34.5492 22.1569 34.8374 22.1569 34.8374L23.7305 36.6712C23.7305 36.6712 23.9498 36.9291 23.7305 37.1085C23.5117 37.2858 22.7435 37.5478 21.6771 37.5478C20.61 37.5478 19.0361 37.2576 19.4193 36.6712Z" fill="#242227"/>
<path d="M26.0921 30.1338L24.3815 31.6407C24.3815 31.6407 23.9706 31.9003 23.9706 32.2561C23.9706 32.6118 24.2581 32.8715 24.2581 32.8715L26.0921 34.4458C26.0921 34.4458 26.3523 34.6646 26.5298 34.4458C26.7081 34.2271 26.9682 33.4583 26.9682 32.391C26.9682 31.3237 26.6807 29.7515 26.0921 30.1338Z" fill="#242227"/>
<path d="M17.3691 30.1338L19.0799 31.6407C19.0799 31.6407 19.4905 31.9003 19.4905 32.2561C19.4905 32.6118 19.2029 32.8715 19.2029 32.8715L17.3691 34.4458C17.3691 34.4458 17.1088 34.6646 16.9306 34.4458C16.7529 34.2271 16.4927 33.4583 16.4927 32.391C16.4927 31.3237 16.7801 29.7515 17.3691 30.1338Z" fill="#242227"/>
<path d="M24.2012 51.1582V54.8834H27.8125V51.1582H29.9993V60.8557H27.8125V56.797H24.2012V60.8557H22V51.1582H24.2012Z" fill="#202C45"/>
<path d="M36.6321 56.7259L36.0278 54.6683C35.8552 54.0942 35.6826 53.3743 35.5386 52.7984H35.5098C35.366 53.3743 35.222 54.107 35.0638 54.6683L34.4885 56.7259H36.6321ZM34.1719 58.3662L33.4813 60.8557H31.2081L34.1719 51.1582H37.0493L40.0562 60.8557H37.6968L36.9487 58.3662H34.1719Z" fill="#202C45"/>
<path d="M42.0272 53.0007H39.423V51.1582H46.8756V53.0007H44.2284V60.8557H42.0272V53.0007Z" fill="#202C45"/>
<path d="M54.7456 60.5824C54.3426 60.783 53.4363 61 52.2565 61C48.9042 61 47.1777 58.9121 47.1777 56.1513C47.1777 52.8417 49.5371 51 52.4722 51C53.6088 51 54.4722 51.2297 54.8606 51.4322L54.4146 53.1717C53.9686 52.9858 53.35 52.8125 52.5731 52.8125C50.8322 52.8125 49.4797 53.8629 49.4797 56.0219C49.4797 57.9639 50.6307 59.1856 52.5875 59.1856C53.2492 59.1856 53.983 59.0415 54.4146 58.8701L54.7456 60.5824Z" fill="#202C45"/>
<path d="M58.3855 51.1582V54.8834H61.9968V51.1582H64.1835V60.8557H61.9968V56.797H58.3855V60.8557H56.1843V51.1582H58.3855Z" fill="#202C45"/>
<path d="M68.2696 59.3027C68.4854 59.33 68.7445 59.33 69.1185 59.33C70.1113 59.33 70.9889 58.9563 70.9889 57.9355C70.9889 56.9565 70.1113 56.5682 69.0177 56.5682H68.2696V59.3027ZM68.2696 55.0005H68.9891C70.1401 55.0005 70.7586 54.5247 70.7586 53.8065C70.7586 53.0718 70.1975 52.6835 69.2049 52.6835C68.7301 52.6835 68.4566 52.7127 68.2696 52.74V55.0005ZM66.0972 51.2871C66.6727 51.1723 67.8381 51.0866 68.9315 51.0866C70.2695 51.0866 71.0895 51.216 71.7946 51.6335C72.4707 51.9926 72.9598 52.6543 72.9598 53.5312C72.9598 54.3953 72.4563 55.201 71.3629 55.6039V55.6331C72.4707 55.9339 73.2907 56.7688 73.2907 58.0211C73.2907 58.898 72.888 59.5889 72.2835 60.0792C71.5788 60.6389 70.399 60.9561 68.471 60.9561C67.392 60.9561 66.5863 60.8832 66.0972 60.8121V51.2871Z" fill="#202C45"/>
<path d="M79.4487 56.7259L78.8444 54.6683C78.672 54.0942 78.4992 53.3743 78.3554 52.7984H78.3266C78.1827 53.3743 78.0389 54.107 77.8807 54.6683L77.3051 56.7259H79.4487ZM76.9885 58.3662L76.298 60.8557H74.0248L76.9885 51.1582H79.8661L82.8729 60.8557H80.5135L79.7653 58.3662H76.9885Z" fill="#202C45"/>
<path d="M90.9296 60.5824C90.5268 60.783 89.6205 61 88.4407 61C85.0884 61 83.3619 58.9121 83.3619 56.1513C83.3619 52.8417 85.7215 51 88.6564 51C89.793 51 90.6564 51.2297 91.0448 51.4322L90.5988 53.1717C90.1528 52.9858 89.5341 52.8125 88.7573 52.8125C87.0164 52.8125 85.6639 53.8629 85.6639 56.0219C85.6639 57.9639 86.8149 59.1856 88.7715 59.1856C89.4334 59.1856 90.167 59.0415 90.5988 58.8701L90.9296 60.5824Z" fill="#202C45"/>
<path d="M92.3685 51.1582H94.541V55.4447H94.5843C94.7999 55.0711 95.0303 54.7266 95.2461 54.3804L97.4473 51.1582H100.138L96.9294 55.288L100.31 60.8557H97.7493L95.3755 56.6676L94.541 57.6901V60.8557H92.3685V51.1582Z" fill="#202C45"/>
</svg>