<svg width="126" height="64" viewBox="0 0 126 64" fill="none" xmlns="http://www.w3.org/2000/svg">
<path d="M3.36816 32.7226L7.4812 35.3515C7.4812 35.3515 8.32185 33.2066 11.4789 33.8459C14.6363 34.4822 27.5224 35.483 27.5224 35.483C27.5224 35.483 32.1645 36.7854 34.3112 35.2768C36.4571 33.7682 84.0342 33.8369 84.0342 33.8369L90.8777 35.5606C90.8777 35.5606 93.1186 34.7809 94.7019 34.7212C96.2867 34.6614 109.88 34.3627 109.88 34.3627L112.273 33.9474L117.929 28.9525L106.57 13.4808L23.2107 16.5071L6.26055 21.2988L3.36816 32.7226Z" fill="#12100F"/>
<path d="M12.8893 15.7341L10.6377 15.4446C10.6377 15.4446 6.87298 16.0354 4.75343 17.8551C2.63535 19.6748 1.7453 23.2345 1.87291 23.7426C2.00023 24.2507 8.86522 21.5418 9.0339 21.3084C9.20376 21.0751 12.8893 15.7341 12.8893 15.7341Z" fill="#C8DAE5"/>
<path d="M33.2781 12.1856C33.2781 12.1856 34.1801 11.6791 34.8307 11.4641C35.48 11.2462 37.7553 10.9222 37.611 11.1019C37.4664 11.2844 36.564 11.6791 36.7437 12.1856C36.9242 12.6921 33.2781 12.1856 33.2781 12.1856Z" fill="#545862"/>
<path d="M35.8187 12.2215C35.8187 12.2215 50.9871 3.71581 56.1261 1.91712L58.1001 2.01772L46.6846 8.29484L39.5265 13.0293L35.8187 12.2215Z" fill="#C8DAE5"/>
<path d="M32.0645 36.0359C36.0663 35.678 81.9976 35.5778 89.7459 35.5635L89.7018 33.4077L32.0551 34.4069C32.0573 35.0367 32.0599 35.5778 32.0645 36.0359Z" fill="#989A96"/>
<path d="M119.28 11.9283C119.28 11.9283 121.072 11.3859 121.364 12.5938C121.655 13.8045 121.655 14.9713 122.155 16.2201C122.656 17.4719 122.989 18.2224 122.572 19.096C122.155 19.9725 115.237 18.2634 115.237 18.2634C115.237 18.2634 115.195 12.0104 119.28 11.9283Z" fill="#ED1D35"/>
<path d="M123.459 21.2662C123.459 20.8532 122.868 18.4303 122.868 18.4303C122.868 18.4303 122.101 18.4029 119.887 18.3422C117.673 18.2845 117.23 16.2472 116.727 15.2755C116.225 14.3009 120.271 12.7979 120.743 12.0874C121.216 11.38 113.863 10.7059 112.299 10.5298C110.733 10.3537 106.246 7.67874 100.339 4.78515C94.4343 1.89156 86.9647 -3.34125e-05 72.7324 -3.34125e-05C58.5 -3.34125e-05 54.586 2.55348 54.586 2.55348H56.2857C45.0359 7.72125 38.6564 12.1603 38.6564 12.1603C37.4758 12.5156 33.8132 12.0844 33.8132 12.0844C16.7158 13.8272 10.5722 15.6278 10.5722 15.6278C10.5722 15.6278 12.1322 16.3413 11.8079 16.8119C11.4827 17.2856 6.74887 20.7166 5.27353 22.0161C3.79698 23.3156 1.77056 23.2367 1.77056 23.2367C0.225994 23.9411 -0.0524285 25.1921 0.00738645 26.018C0.0659869 26.8438 0.686304 30.8032 0.715756 31.3345C0.744904 31.8659 -0.0818853 31.8051 0.184701 32.7798C0.450073 33.7544 2.78316 34.9052 2.78316 34.9052L6.61617 35.2756C6.3845 34.137 5.72927 30.3477 6.68753 27.949C7.82705 25.104 10.7428 19.329 18.8385 19.329C25.3838 19.329 31.6483 23.6102 31.6483 32.6249C31.6483 33.2929 31.6495 33.885 31.6519 34.4133L88.6595 33.4265L88.6313 31.9843C88.6313 31.9843 90.3769 19.1408 101.6 19.6964C111.236 20.1761 112.965 28.7688 111.822 33.885C113.932 33.7028 119.159 33.2595 119.887 33.2808C120.802 33.3111 121.186 32.5429 121.186 32.5429C126.294 31.0673 124.522 29.3852 124.522 29.3852C125.644 27.1414 125.556 25.6658 125.704 23.5677C125.851 21.4726 123.459 21.2662 123.459 21.2662Z" fill="#633A28"/>
<path d="M102.847 19.5602C91.5234 18.9976 89.7622 31.9559 89.7622 31.9559L89.8344 35.5636C90.5491 35.5607 90.9391 35.5607 90.9391 35.5607C90.7612 33.1487 90.8501 21.1004 102.945 20.9679C113.82 20.8501 112.27 33.9527 112.27 33.9527C112.27 33.9527 112.613 33.9232 113.16 33.8732C114.314 28.7134 112.569 20.0431 102.847 19.5602Z" fill="#989A96"/>
<path d="M19.0353 19.184C10.8641 19.184 7.92173 25.0117 6.7718 27.8858C5.80415 30.3035 6.46584 34.1287 6.69936 35.2772L7.47942 35.3537C6.2868 28.7369 9.0587 19.3784 20.1743 20.3031C31.2902 21.2277 31.499 33.6546 31.499 34.6676C31.499 35.6806 31.7372 36.0664 31.7372 36.0664C31.7811 36.0575 31.863 36.0458 31.9766 36.0369C31.9684 35.1888 31.9637 34.0698 31.9637 32.6033C31.9637 23.504 25.641 19.184 19.0353 19.184Z" fill="#989A96"/>
<path d="M41.1495 13.4632C41.1495 13.4632 55.9976 3.21301 58.1642 2.83883C58.1642 2.83883 67.9532 0.102966 75.9343 0.863606C83.9143 1.62118 98.6639 2.8327 99.0866 7.46095C99.5095 12.0892 98.8219 11.2427 98.8219 11.2427L41.1495 13.4632Z" fill="#C8DAE5"/>
<path d="M71.9253 1.48419L69.7372 12.5015L74.4266 12.2754L75.2075 1.48419H71.9253Z" fill="#2E3744"/>
<path d="M28.3837 31.4388C28.3837 36.6135 24.1887 40.8087 19.0143 40.8087C13.839 40.8087 9.64404 36.6135 9.64404 31.4388C9.64404 26.2641 13.839 22.0688 19.0143 22.0688C24.1887 22.0688 28.3837 26.2641 28.3837 31.4388Z" fill="#242227"/>
<path d="M11.9681 31.4403C11.9681 35.3417 15.1317 38.5052 19.0354 38.5052C22.938 38.5052 26.1015 35.3417 26.1015 31.4403C26.1015 27.536 22.938 24.3724 19.0354 24.3724C15.1317 24.3724 11.9681 27.536 11.9681 31.4403Z" fill="#C2BDBA"/>
<path d="M16.612 26.6716L18.2282 28.5058C18.2282 28.5058 18.5063 28.9465 18.8892 28.9465C19.2712 28.9465 19.5491 28.6374 19.5491 28.6374L21.2391 26.6716C21.2391 26.6716 21.4741 26.3911 21.2391 26.1994C21.0045 26.0105 20.1798 25.7301 19.0354 25.7301C17.8897 25.7301 16.2007 26.0392 16.612 26.6716Z" fill="#242227"/>
<path d="M16.6119 36.1813L18.2274 34.3449C18.2274 34.3449 18.5063 33.9033 18.8883 33.9033C19.2702 33.9033 19.5494 34.2127 19.5494 34.2127L21.2383 36.1813C21.2383 36.1813 21.4742 36.4598 21.2383 36.651C21.0034 36.8422 20.1788 37.1207 19.0342 37.1207C17.8899 37.1207 16.2008 36.8113 16.6119 36.1813Z" fill="#242227"/>
<path d="M23.8397 29.1496L22.0204 30.7502C22.0204 30.7502 21.5842 31.0263 21.5842 31.4039C21.5842 31.7844 21.8897 32.0605 21.8897 32.0605L23.8397 33.7344C23.8397 33.7344 24.1162 33.9655 24.3061 33.7344C24.4946 33.5005 24.7714 32.6833 24.7714 31.5505C24.7714 30.4148 24.4659 28.741 23.8397 29.1496Z" fill="#242227"/>
<path d="M14.3431 29.1496L16.1624 30.7502C16.1624 30.7502 16.5986 31.0263 16.5986 31.4039C16.5986 31.7844 16.2932 32.0605 16.2932 32.0605L14.3431 33.7344C14.3431 33.7344 14.0667 33.9655 13.8768 33.7344C13.6882 33.5005 13.4115 32.6833 13.4115 31.5476C13.4115 30.4148 13.717 28.741 14.3431 29.1496Z" fill="#242227"/>
<path d="M111.188 31.4388C111.188 36.6135 106.993 40.8087 101.818 40.8087C96.6442 40.8087 92.4492 36.6135 92.4492 31.4388C92.4492 26.2641 96.6442 22.0688 101.818 22.0688C106.993 22.0688 111.188 26.2641 111.188 31.4388Z" fill="#242227"/>
<path d="M94.7693 31.4403C94.7693 35.3417 97.9343 38.5052 101.837 38.5052C105.739 38.5052 108.903 35.3417 108.903 31.4403C108.903 27.536 105.739 24.3724 101.837 24.3724C97.9343 24.3724 94.7693 27.536 94.7693 31.4403Z" fill="#C2BDBA"/>
<path d="M99.4164 26.6716L101.032 28.5058C101.032 28.5058 101.311 28.9465 101.693 28.9465C102.075 28.9465 102.354 28.6374 102.354 28.6374L104.043 26.6716C104.043 26.6716 104.278 26.3911 104.043 26.1994C103.808 26.0105 102.983 25.7301 101.839 25.7301C100.694 25.7301 99.0043 26.0392 99.4164 26.6716Z" fill="#242227"/>
<path d="M99.4155 36.1813L101.032 34.3449C101.032 34.3449 101.311 33.9033 101.693 33.9033C102.075 33.9033 102.354 34.2127 102.354 34.2127L104.043 36.1813C104.043 36.1813 104.279 36.4598 104.043 36.651C103.808 36.8422 102.984 37.1207 101.839 37.1207C100.693 37.1207 99.0044 36.8113 99.4155 36.1813Z" fill="#242227"/>
<path d="M106.645 29.1495L104.825 30.7501C104.825 30.7501 104.388 31.0263 104.388 31.4039C104.388 31.7843 104.694 32.0605 104.694 32.0605L106.645 33.7344C106.645 33.7344 106.921 33.9655 107.11 33.7344C107.298 33.5005 107.576 32.6833 107.576 31.5505C107.576 30.4148 107.269 28.7409 106.645 29.1495Z" fill="#242227"/>
<path d="M97.147 29.1495L98.9674 30.7501C98.9674 30.7501 99.4036 31.0263 99.4036 31.4039C99.4036 31.7843 99.0981 32.0605 99.0981 32.0605L97.147 33.7344C97.147 33.7344 96.8702 33.9655 96.6817 33.7344C96.4918 33.5005 96.2153 32.6833 96.2153 31.5476C96.2153 30.4148 96.5208 28.7409 97.147 29.1495Z" fill="#242227"/>
<path d="M98.2563 11.0284L72.1213 12.0031L41.8249 13.3825C44.7506 11.3441 55.7163 4.06718 58.9817 2.8472C62.7891 1.42798 74.415 1.34214 75.6705 1.40344C76.9251 1.46781 90.1821 1.84485 96.1324 4.91931C96.1324 4.91931 99.9873 5.90632 98.2563 11.0284ZM93.8019 3.28553C93.8019 3.28553 86.0731 0.428696 73.6416 0.765875C73.6416 0.765875 63.1928 0.695368 58.243 2.41498C58.243 2.41498 50.5915 5.29019 39.8232 13.8883H41.0383H41.5146L42.0872 13.83L99.9765 11.5341C99.9517 10.9977 100.055 9.99231 99.8956 8.81525C99.5692 6.39062 98.7219 4.49018 93.8019 3.28553Z" fill="#F4F7F9"/>
<path d="M74.9008 0.884618C69.177 0.884618 63.1411 1.34116 59.8799 2.02139C56.3124 2.76597 49.636 6.68495 41.0826 13.0614L40.9732 13.1441C38.8813 14.7037 38.437 15.4636 37.8086 18.5798C37.1884 21.6501 38.0258 31.4215 38.1208 32.5062L89.69 31.9424C90.5133 22.1955 98.5903 19.8545 99.3293 19.6615C99.9471 18.1233 100.022 10.27 99.6593 8.03623C99.2782 5.68606 98.2269 4.43283 89.7614 2.28489C85.1958 1.12666 79.1596 0.884618 74.9008 0.884618ZM37.9284 32.7207L37.9189 32.6226C37.9094 32.5154 36.9411 21.8033 37.6005 18.5369C38.2434 15.3564 38.6984 14.575 40.8473 12.9725L40.9554 12.8928C49.6587 6.40612 56.1877 2.576 59.837 1.81304C63.1101 1.13281 69.1639 0.673183 74.9008 0.673183C79.1715 0.673183 85.2268 0.918324 89.8135 2.07962C98.4003 4.2582 99.4718 5.55738 99.8674 8.00253C100.246 10.3374 100.167 18.3102 99.5027 19.7932L99.4813 19.8422L99.4289 19.8545C99.3422 19.8729 90.6925 21.9657 89.8919 32.0558L89.8848 32.1538L37.9284 32.7207Z" fill="#1D1B1A"/>
<path d="M11.3939 22.4605L6.1497 22.4865C6.1497 22.4865 5.93444 23.4994 7.1874 23.5773C8.43777 23.6552 10.1048 23.687 10.1048 23.687C10.1048 23.687 10.8664 22.8414 11.3939 22.4605Z" fill="#BC3C21"/>
<path d="M91.5272 24.1187C91.5345 24.4868 79.8193 24.6972 65.3681 24.9718C50.9168 25.2465 39.2019 25.4773 39.1958 25.1091C39.1888 24.741 50.9443 24.3524 65.3955 24.0778C79.8468 23.8032 91.5202 23.7506 91.5272 24.1187Z" fill="#989A96"/>
<path d="M71.1489 32.263C70.3051 26.1315 72.0436 12.5028 72.062 12.3632L73.3999 1.73341L73.6027 1.76014L72.2648 12.39C72.2473 12.5265 70.5124 26.1315 71.3526 32.2362L71.1489 32.263Z" fill="#1D1B1A"/>
<path d="M62.7117 16.2701C62.7117 16.2701 62.6578 15.4632 64.0605 15.1069C65.4619 14.7506 65.8612 14.7182 66.3253 14.7182C66.7894 14.7182 69.7122 14.9125 69.7346 15.9904C69.7558 17.0711 67.566 17.4245 66.714 17.4893C65.8612 17.554 62.6578 17.6512 62.7117 16.2701Z" fill="#989A96"/>
<path d="M90.664 15.636C90.664 15.636 90.61 14.8252 92.0115 14.4713C93.4142 14.1145 93.8135 14.0821 94.2776 14.0821C94.7405 14.0821 97.6644 14.2767 97.6857 15.3559C97.7066 16.4322 95.5181 16.789 94.6653 16.8538C93.8135 16.9187 90.61 17.016 90.664 15.636Z" fill="#989A96"/>
<path d="M68.5365 15.9072C68.5421 16.1645 68.3377 16.378 68.0798 16.3838L64.2351 16.4744C63.9769 16.4803 63.762 16.2756 63.7561 16.0183L63.7538 15.9131C63.7479 15.6558 63.9523 15.4423 64.2105 15.4365L68.0553 15.3459C68.3134 15.34 68.5283 15.5447 68.5342 15.802L68.5365 15.9072Z" fill="#E0E6F4"/>
<path d="M96.4922 15.2716C96.4981 15.5292 96.2937 15.7429 96.0358 15.7488L92.1898 15.8395C91.9318 15.8454 91.7181 15.6405 91.7123 15.3828L91.7087 15.2774C91.7029 15.0198 91.9072 14.8061 92.1652 14.8002L96.0112 14.7095C96.2691 14.7036 96.4828 14.9086 96.4899 15.1662L96.4922 15.2716Z" fill="#E0E6F4"/>
<path d="M73.6821 52.8637L70.8696 63.3125H69.9492L72.7617 52.8637H73.6821Z" fill="#202C45"/>
<path d="M23.4462 61.0863C24.0356 61.3908 24.9429 61.6926 25.8779 61.6926C26.8858 61.6926 27.4174 61.275 27.4174 60.6417C27.4174 60.0381 26.9574 59.6905 25.7912 59.2755C24.18 58.7123 23.1294 57.8204 23.1294 56.411C23.1294 54.7565 24.5106 53.49 26.799 53.49C27.8925 53.49 28.6982 53.719 29.2738 53.9804L28.7847 55.7481C28.3964 55.5622 27.7052 55.2873 26.7553 55.2873C25.8063 55.2873 25.3452 55.7212 25.3452 56.2251C25.3452 56.8422 25.893 57.117 27.1447 57.5913C28.8564 58.2246 29.6621 59.1165 29.6621 60.4827C29.6621 62.1103 28.4104 63.49 25.7486 63.49C24.64 63.49 23.5468 63.2017 23 62.8999L23.4462 61.0863Z" fill="#202C45"/>
<path d="M37.3355 59.1137H33.655V61.4887H37.7658V63.3415H31.3855V53.3415H37.5583V55.197H33.655V57.2748H37.3355V59.1137Z" fill="#202C45"/>
<path d="M41.5265 61.6674C41.7162 61.7111 42.0219 61.711 42.2992 61.711C44.3109 61.7274 45.622 60.6193 45.622 58.2722C45.6373 56.2307 44.4419 55.1527 42.5323 55.1527C42.0358 55.1527 41.7162 55.1963 41.5265 55.24V61.6674ZM39.2959 53.6516C40.1122 53.5206 41.1764 53.4469 42.2992 53.4469C44.1643 53.4469 45.374 53.7826 46.3224 54.4976C47.342 55.2536 47.9837 56.4654 47.9837 58.1985C47.9837 60.0789 47.2989 61.3754 46.3505 62.1778C45.3166 63.0375 43.7419 63.4469 41.818 63.4469C40.666 63.4469 39.8499 63.3732 39.2959 63.2995V53.6516Z" fill="#202C45"/>
<path d="M54.2368 59.0831L53.6146 56.9609C53.4357 56.3692 53.2582 55.6276 53.1093 55.0331H53.0793C52.9315 55.6276 52.7826 56.3831 52.6193 56.9609L52.0257 59.0831H54.2368ZM51.7004 60.7748L50.9876 63.3415H48.6432L51.7004 53.3415H54.6668L57.7682 63.3415H55.3357L54.5632 60.7748H51.7004Z" fill="#202C45"/>
<path d="M59.0819 63.3415V53.3415H61.723L63.8005 57.0054C64.3941 58.0609 64.9875 59.3053 65.4322 60.4331H65.4775C65.3286 59.1137 65.2844 57.7637 65.2844 56.2637V53.3415H67.3616V63.3415H64.9875L62.8505 59.4831C62.2569 58.4165 61.6039 57.1248 61.1152 55.9526L61.07 55.9665C61.1294 57.2887 61.1594 58.697 61.1594 60.3303V63.3415H59.0819Z" fill="#202C45"/>
<path d="M84.061 59.3842C84.0157 58.1829 83.9716 56.729 83.9716 55.2751H83.9275C83.6153 56.5502 83.2005 57.9755 82.8144 59.147L81.5976 63.0489H79.8327L78.7637 59.1768C78.4371 58.0042 78.0963 56.58 77.8591 55.2751H77.8293C77.7697 56.6253 77.7256 58.1675 77.6518 59.414L77.473 63.2121H75.3815L76.0191 53.2121H79.0306L80.0102 56.5502C80.3213 57.7074 80.6335 58.954 80.8564 60.1267H80.9005C81.1817 58.9695 81.5237 57.649 81.8503 56.5359L82.9181 53.2121H85.8713L86.4195 63.2121H84.2088L84.061 59.3842Z" fill="#202C45"/>
<path d="M89.7469 53.4642V59.1297C89.7469 60.8214 90.3891 61.6823 91.5288 61.6823C92.6958 61.6823 93.338 60.8651 93.338 59.1297V53.4642H95.5572V58.9821C95.5572 62.0185 94.024 63.4642 91.455 63.4642C88.9735 63.4642 87.514 62.0922 87.514 58.952V53.4642H89.7469Z" fill="#202C45"/>
<path d="M99.9931 63.3002L96.7876 53.3002H99.2654L100.482 57.528C100.824 58.7169 101.135 59.8585 101.371 61.1058H101.415C101.668 59.903 101.979 58.7169 102.321 57.5724L103.599 53.3002H106.001L102.632 63.3002H99.9931Z" fill="#202C45"/>
</svg>