<svg width="120" height="67" viewBox="0 0 120 67" fill="none" xmlns="http://www.w3.org/2000/svg">
<path d="M5.94696 40.5648C5.94696 40.5648 8.75121 42.6882 8.92628 42.565C9.0981 42.4418 8.79336 41.7059 8.92628 41.5762C9.05595 41.4466 10.8811 40.9959 10.8811 40.9959L29.5512 42.1111C29.5512 42.1111 32.2647 42.3608 32.7737 42.1306C33.2826 41.9036 86.5081 40.3703 86.5081 40.3703L87.1111 41.0186C87.1111 41.0186 88.664 40.5291 89.6203 41.7545C90.5735 42.9832 112.472 40.4027 112.933 41.0186C113.396 41.6346 111.701 23.8011 111.701 23.8011L67.0535 26.1807L15.4425 23.6099C15.4425 23.6099 4.12177 32.0484 5.94696 40.5648Z" fill="#100F0D"/>
<path d="M52.2966 2.53574C52.2966 2.53574 54.4996 0.748834 57.1704 0.500472C59.8411 0.252109 94.5927 -0.518807 102.66 0.55528C110.73 1.62937 79.5038 9.806 79.5038 9.806L52.2966 2.53574Z" fill="#CACDD7"/>
<path d="M29.0536 16.5817C29.0536 16.5817 48.4111 3.39125 49.8428 3.17121C51.2745 2.95118 51.9904 4.21859 51.9904 4.21859L30.1274 18.3449L29.0536 16.5817Z" fill="#9195A3"/>
<path d="M32.1432 16.5764C32.1432 16.5764 43.257 7.78558 50.3414 3.32079L48.6703 3.68211C48.6703 3.68211 51.4673 0.304492 73.2593 0.994857C95.0545 1.68522 104.317 1.21421 109.872 1.83037C109.872 1.83037 110.74 1.66587 110.817 3.64664C110.817 3.64664 108.601 4.69829 108.675 5.28219C108.746 5.86287 98.4677 15.3796 98.4677 15.3796L55.1708 17.812L32.1432 16.5764Z" fill="#292B2D"/>
<path d="M2.6193 28.6888C2.6193 28.6888 1.04942 28.8917 0.796576 31.1173C0.543731 33.3428 0.240867 37.6939 1.15222 40.1724C2.0608 42.6508 2.82213 40.6586 2.82213 40.6586L2.6193 28.6888Z" fill="#212121"/>
<path d="M1.07845 37.2625C1.16068 38.5972 1.08941 39.6907 0.91674 39.7017C0.744073 39.7099 0.535793 38.6356 0.453571 37.3008C0.368608 35.9634 0.439862 34.8726 0.612529 34.8616C0.785195 34.8507 0.993491 35.925 1.07845 37.2625Z" fill="#B9B8B7"/>
<path d="M117.349 32.9569L117.632 27.3891C117.632 27.3891 119.127 27.6224 119.334 28.6775C119.538 29.7358 120.725 35.3563 119.334 35.9972C117.941 36.6381 119.255 38.3669 119.255 38.3669L117.425 40.5855C117.425 40.5855 115.466 34.1171 117.349 32.9569Z" fill="#212121"/>
<path d="M114.01 13.1307C114.01 13.1307 114.843 12.7502 114.986 13.1307C115.129 13.5145 114.557 13.9309 114.267 13.9699C113.974 14.0089 114.01 13.1307 114.01 13.1307Z" fill="#232122"/>
<path d="M110.871 3.20694C110.871 3.20694 108.933 2.61086 108.362 5.59128C107.789 8.57169 107.939 16.2458 107.939 16.2458L111.939 22.1578L115.913 23.3532C115.913 23.3532 115.49 22.7018 115.317 20.8907C115.317 20.8907 115.092 20.5911 115.092 19.995C115.092 19.3989 114.174 14.5553 114.594 14.4315C114.594 14.4315 113.379 8.34693 110.871 3.20694Z" fill="#646367"/>
<path d="M7.07948 20.0078C7.07948 20.0078 5.36877 20.8929 5.19004 21.2504C5.01415 21.6078 3.60133 23.9114 3.9219 26.2349C4.24532 28.5584 7.29508 27.2817 7.29508 27.2817L11.23 25.032L17.0713 19.2503C17.0713 19.2503 8.68521 18.7425 7.07948 20.0078Z" fill="#B5B2BC"/>
<path d="M110.421 4.63682L111.529 6.94954C111.529 6.94954 110.964 7.61866 111.168 8.54439C111.373 9.47013 112.555 15.0473 112.89 15.5865C113.224 16.1257 114.098 17.0254 114.124 17.412C114.15 17.7953 114.433 20.4685 114.433 20.4685C114.433 20.4685 110.86 17.8732 110.421 16.6909C109.986 15.5085 109.086 6.71891 109.395 5.89712C109.703 5.07532 110.421 4.63682 110.421 4.63682Z" fill="#ED1D35"/>
<path d="M111.88 8.20935C111.88 8.20935 111.578 8.49161 111.757 9.21191C111.938 9.9322 112.889 14.9159 113.223 15.276C113.557 15.6362 113.687 15.9444 113.762 15.7659C113.84 15.5843 112.435 9.14379 111.88 8.20935Z" fill="#E4E2ED"/>
<path d="M114.684 17.6905C114.684 17.6905 114.193 14.477 114.434 14.35C114.671 14.223 115.258 15.7467 115.472 17.7296C115.687 19.7092 115.638 20.865 115.358 20.9171C115.078 20.9659 114.824 18.7715 114.684 17.6905Z" fill="#841A20"/>
<path d="M19.7191 24.526C33.0256 24.526 34.8962 38.846 34.8962 38.846L84.1227 38.3391C84.1227 38.3391 84.7309 23.8032 100.768 23.8032C111.916 23.8032 114.987 36.2135 114.987 36.2135L117.459 36.0827C117.407 36.0794 117.371 36.086 117.371 36.086C117.286 35.9127 117.502 33.6955 117.629 33.3129C117.753 32.9303 117.884 30.9682 117.884 30.9682C117.884 30.9682 118.012 30.1997 117.884 27.5966C117.757 24.9968 116.517 24.3134 116.39 24.1433C116.262 23.9733 115.71 22.9988 115.71 22.9988C115.71 22.9988 113.021 20.8601 111.063 19.2414C109.097 17.6194 108.927 16.4258 108.715 14.6337C108.502 12.8417 108.446 5.20588 108.446 5.20588L101.422 4.86903C102.021 5.59501 98.4821 11.2229 97.6711 12.5866C96.8601 13.9503 94.6854 13.8653 94.6854 13.8653L67.4348 14.8038L36.3874 16.0236C36.3874 16.0236 30.331 16.4258 28.8823 16.2557C27.4336 16.0824 19.5 17.2793 13.4469 18.1295C7.39043 18.983 5.64087 20.7751 5.64087 20.7751C5.64087 20.7751 4.40473 21.9262 6.02349 20.6475C7.64551 19.3689 13.6169 19.4114 14.3396 19.4539C15.0656 19.4964 15.4482 20.0491 15.4482 20.0491C14.5555 20.3074 9.69267 24.1008 8.36823 24.9118C7.04707 25.7228 5.85344 26.1087 4.82986 26.1087C3.80628 26.1087 3.8913 25.4056 3.8913 25.4056C2.7827 27.0015 2.43934 26.3082 1.88667 27.7601C1.33074 29.2088 2.00768 37.7636 2.00768 37.7636L5.96134 37.9107C5.96134 37.9107 6.41264 24.526 19.7191 24.526Z" fill="#633A28"/>
<path d="M118.429 36.1647C118.429 37.4536 118.681 38.4965 118.99 38.4965C119.301 38.4965 119.554 37.4536 119.554 36.1647C119.554 34.8758 119.301 33.8329 118.99 33.8329C118.681 33.8329 118.429 34.8758 118.429 36.1647Z" fill="#C4C1C6"/>
<path d="M42.8649 15.2152L65.0247 14.4155L67.7317 4.13843H52.9082C52.9082 4.13843 43.0159 11.0481 42.4769 12.058C41.9349 13.065 42.8649 15.2152 42.8649 15.2152Z" fill="#CACDD7"/>
<path d="M71.6226 4.23917L70.1818 14.126L91.6548 13.4662L92.2305 7.85531L90.6808 4.63753L71.6226 4.23917Z" fill="#CACDD7"/>
<path d="M92.2297 4.63726L95.9046 12.962C95.9046 12.962 96.0851 13.3323 96.9144 12.3605C97.7405 11.3856 100.516 6.41616 100.516 6.41616C100.516 6.41616 100.912 5.84007 100.516 5.33363C100.121 4.83035 98.823 4.90316 98.823 4.90316L92.2297 4.63726Z" fill="#CACDD7"/>
<path d="M27.5555 19.1495C27.5555 19.1495 28.2592 20.971 30.4042 20.9057C32.5492 20.8376 33.9848 20.6702 33.9848 20.6702C33.9848 20.6702 34.3537 18.9168 34.4955 18.6898L27.5555 19.1495Z" fill="#7A5D65"/>
<path d="M34.9373 38.8726C32.8977 32.7252 33.9255 21.2677 33.9603 20.903C33.9508 20.7158 33.8652 18.34 36.1998 15.8404C38.5599 13.3123 52.406 3.32029 52.5456 3.21879L52.571 3.19977H52.6059L87.7431 3.63434C88.184 3.63117 98.6773 3.57089 100.479 3.97057C101.047 4.09745 101.446 4.36391 101.662 4.76042C102.021 5.41703 101.745 6.18784 101.735 6.21956L101.542 6.14977C101.545 6.14343 101.799 5.42972 101.485 4.85558C101.297 4.513 100.942 4.28142 100.435 4.1704C98.655 3.77389 87.8509 3.83418 87.7399 3.83418L52.6376 3.40279C51.9429 3.90397 38.6455 13.5184 36.3489 15.9768C34.0301 18.4605 34.1602 20.8744 34.1633 20.8966V20.9062V20.9125C34.1507 21.0299 33.0817 32.6332 35.1308 38.8092L34.9373 38.8726Z" fill="#1A1817"/>
<path d="M15.4597 20.1503L15.4426 19.9489L34.4908 18.5895L34.505 18.791L15.4597 20.1503Z" fill="#1A1817"/>
<path d="M33.582 19.4397H28.9279C28.9279 19.4397 28.8259 20.2442 29.908 20.5529C29.908 20.5529 33.3696 20.5473 33.582 20.3462C33.7945 20.145 33.582 19.4397 33.582 19.4397Z" fill="white"/>
<path d="M42.6116 11.0236L43.0792 10.6165H43.6999C43.6999 10.6165 44.0694 10.7811 44.1069 12.6893C44.1445 14.5974 43.8933 15.0766 43.3593 15.1719C42.8252 15.2643 42.6116 11.0236 42.6116 11.0236Z" fill="#1C1819"/>
<path d="M39.1737 13.7693C39.1737 13.7693 39.629 15.2389 40.5136 15.3484C41.3925 15.4579 43.228 15.2561 43.4845 15.1294C43.7438 14.9997 43.741 12.389 43.594 11.9338C43.4499 11.4756 41.0986 11.8242 41.0986 11.8242L40.1246 12.4495L39.9056 13.386C39.9056 13.386 39.191 13.4581 39.1737 13.7693Z" fill="#262021"/>
<path d="M40.0662 13.315C40.0662 13.315 40.1439 13.485 40.3802 13.315C40.6193 13.145 41.2733 12.6869 43.6819 12.7964L43.6041 12.0473C43.6041 12.0473 39.5879 11.5575 40.0662 13.315Z" fill="#E6EBED"/>
<path d="M39.7765 13.4576C39.7765 13.4576 39.8689 10.9446 41.9602 10.7222C44.0544 10.5026 43.1734 10.6124 43.1734 10.6124C43.1734 10.6124 43.4854 10.338 43.6125 12.1751C43.6125 12.1751 41.1716 12.1751 40.7124 12.3571C40.2531 12.5419 40.0509 12.7614 40.0711 13.2207C40.0885 13.68 39.7765 13.4576 39.7765 13.4576Z" fill="#DC242B"/>
<path d="M66.136 38.7017C65.9754 38.1157 65.8593 34.686 65.782 32.4134C65.7612 31.7649 65.7433 31.2057 65.7255 30.8547C65.663 29.4179 66.0557 19.9021 66.3353 18.3256C66.5941 16.868 67.5638 14.4883 67.6352 14.3158L69.6401 3.51202L69.8395 3.55068L67.8316 14.3723L67.8256 14.3812C67.8167 14.408 66.7994 16.8769 66.5346 18.3613C66.2758 19.801 65.8564 29.2008 65.9307 30.8457C65.9426 31.1967 65.9635 31.7589 65.9843 32.4074C66.0557 34.5313 66.1776 38.0859 66.3294 38.6481L66.136 38.7017Z" fill="#1A1817"/>
<path d="M34.8967 38.8325C34.8967 38.8325 33.0244 24.5208 19.7182 24.5208C6.41198 24.5208 5.96165 37.9072 5.96165 37.9072L2.00741 37.7622C1.06049 37.6944 1.24862 38.2588 1.24862 38.4285C1.24862 38.5981 0.992616 38.8973 0.822972 39.1132C0.650244 39.326 0.310963 38.8572 0.011773 40.4765C-0.287417 42.0959 5.21521 42.2254 5.21521 42.2254C5.34476 42.4814 5.89686 42.5678 5.89686 42.5678C8.28729 42.9502 8.92578 42.5678 8.92578 42.5678C5.64086 37.9165 10.6315 25.8811 20.4831 27.3307C33.0584 29.1814 32.0621 42.1113 32.0621 42.1113H87.733C87.4399 41.2168 87.3844 39.8751 87.5911 38.3143H84.1211L34.8967 38.8325Z" fill="#292B2D"/>
<path d="M119.76 39.3262C119.461 39.0274 119.333 37.4909 119.333 37.4909C119.333 37.4909 118.992 38.7714 118.653 38.7287C118.309 38.686 118.013 37.2775 117.941 36.6405C117.888 36.1677 117.603 36.0889 117.458 36.0824L114.986 36.2137C114.986 36.2137 111.919 23.79 100.769 23.79C84.7307 23.79 84.1233 38.315 84.1233 38.315H87.5937C88.2996 33.2883 92.0819 26.6529 100.313 27.477C114.188 28.8626 112.126 41.7493 112.126 41.7493C112.126 41.7493 116.477 41.3684 118.309 40.9842C120.144 40.6034 120.059 39.625 119.76 39.3262Z" fill="#292B2D"/>
<path d="M85.9631 38.5036L85.7588 38.4911C86.2932 31.3522 91.0902 28.2685 93.9602 26.4264C94.3783 26.1593 94.7398 25.9266 95.0447 25.7097C97.0471 24.2795 97.066 20.1364 97.0785 17.6593C97.0817 17.2601 97.0817 16.9143 97.0911 16.6157C97.1571 14.475 95.3716 13.3528 95.3528 13.3433L95.3245 13.3245L95.3119 13.2962L91.0933 3.8438L91.2788 3.75892L95.4848 13.1862C95.7174 13.3433 97.3583 14.5127 97.2954 16.622C97.286 16.9175 97.2829 17.2601 97.2797 17.6593C97.2703 20.1741 97.2483 24.3832 95.161 25.8732C94.8529 26.0932 94.4883 26.3259 94.0671 26.5993C91.2316 28.4194 86.4849 31.4654 85.9631 38.5036Z" fill="#1A1817"/>
<path d="M32.7712 40.5471C32.7928 40.9934 33.2083 41.4397 33.7193 41.4397H85.7516C86.2626 41.4397 86.6781 40.9934 86.6997 40.5471H32.7712Z" fill="#C4C1C6"/>
<path d="M63.0344 20.3073C63.0872 21.2107 62.4859 21.9558 61.691 22.0027L60.7318 22.0614C59.9369 22.1083 59.2505 21.4425 59.1948 20.539C59.142 19.6327 59.7433 18.8906 60.5382 18.8407L61.4974 18.785C62.2923 18.7351 62.9787 19.4009 63.0344 20.3073Z" fill="#451900"/>
<path d="M65.3515 20.2318C65.3604 20.5295 65.1423 20.7741 64.8623 20.7829L57.7831 21.004C57.5032 21.0128 57.2703 20.78 57.2615 20.4823C57.2526 20.1876 57.4707 19.94 57.7507 19.9312L64.8299 19.7102C65.1099 19.7043 65.3427 19.9371 65.3515 20.2318Z" fill="#C4C1C6"/>
<path d="M92.8848 19.0911C92.9409 19.9948 92.3395 20.7396 91.5448 20.7864L90.5849 20.8456C89.7903 20.8924 89.1015 20.2286 89.0485 19.3217C88.9925 18.418 89.5939 17.6731 90.3917 17.6264L91.3485 17.5672C92.1462 17.5205 92.8318 18.1873 92.8848 19.0911Z" fill="#451900"/>
<path d="M95.2017 19.0203C95.2111 19.3146 94.992 19.5619 94.7134 19.5713L87.6326 19.7904C87.354 19.7998 87.1224 19.565 87.1099 19.2708C87.1036 18.9734 87.3196 18.7261 87.6013 18.7198L94.6821 18.4976C94.9607 18.4882 95.1923 18.723 95.2017 19.0203Z" fill="#C4C1C6"/>
<path d="M30.7057 39.0515C30.7057 44.7555 26.0842 49.3771 20.3828 49.3771C14.6815 49.3771 10.0599 44.7555 10.0599 39.0515C10.0599 33.3503 14.6815 28.7287 20.3828 28.7287C26.0842 28.7287 30.7057 33.3503 30.7057 39.0515Z" fill="#242227"/>
<path d="M12.6041 39.0511C12.6041 43.3598 16.0986 46.8515 20.4046 46.8515C24.7133 46.8515 28.2022 43.3598 28.2022 39.0511C28.2022 34.7452 24.7133 31.2536 20.4046 31.2536C16.0986 31.2536 12.6041 34.7452 12.6041 39.0511Z" fill="#C2BDBA"/>
<path d="M17.6998 33.8243L19.5044 35.8737C19.5044 35.8737 19.818 36.3661 20.2444 36.3661C20.6708 36.3661 20.9816 36.0223 20.9816 36.0223L22.8687 33.8243C22.8687 33.8243 23.1328 33.5107 22.8687 33.2989C22.6074 33.0843 21.6858 32.7735 20.4067 32.7735C19.1275 32.7735 17.2404 33.1174 17.6998 33.8243Z" fill="#242227"/>
<path d="M17.699 44.6996L19.5025 42.6508C19.5025 42.6508 19.8153 42.1574 20.2412 42.1574C20.6699 42.1574 20.9799 42.5025 20.9799 42.5025L22.867 44.6996C22.867 44.6996 23.1312 45.0124 22.867 45.2253C22.6055 45.4383 21.6835 45.751 20.4057 45.751C19.1278 45.751 17.2407 45.406 17.699 44.6996Z" fill="#242227"/>
<path d="M25.6971 36.4452L23.6459 38.2505C23.6459 38.2505 23.1543 38.5619 23.1543 38.9879C23.1543 39.4167 23.4984 39.7281 23.4984 39.7281L25.6971 41.6153C25.6971 41.6153 26.0084 41.8775 26.2214 41.6153C26.4345 41.3531 26.7458 40.43 26.7458 39.1518C26.7458 37.8736 26.4017 35.9864 25.6971 36.4452Z" fill="#242227"/>
<path d="M15.2394 36.4452L17.2905 38.2505C17.2905 38.2505 17.7821 38.5619 17.7821 38.9879C17.7821 39.4167 17.438 39.7281 17.438 39.7281L15.2394 41.6153C15.2394 41.6153 14.928 41.8775 14.715 41.6153C14.4992 41.3531 14.1879 40.43 14.1879 39.1518C14.1879 37.8736 14.5347 35.9864 15.2394 36.4452Z" fill="#242227"/>
<path d="M109.64 39.0527C109.64 44.7532 105.018 49.3754 99.3143 49.3754C93.6137 49.3754 88.9915 44.7532 88.9915 39.0527C88.9915 33.3522 93.6137 28.73 99.3143 28.73C105.018 28.73 109.64 33.3522 109.64 39.0527Z" fill="#242227"/>
<path d="M91.5396 39.0525C91.5396 43.3612 95.0314 46.8529 99.3401 46.8529C103.646 46.8529 107.137 43.3612 107.137 39.0525C107.137 34.747 103.646 31.2552 99.3401 31.2552C95.0314 31.2552 91.5396 34.747 91.5396 39.0525Z" fill="#C2BDBA"/>
<path d="M96.6335 33.8246L98.4386 35.8739C98.4386 35.8739 98.7495 36.3688 99.1778 36.3688C99.6029 36.3688 99.917 36.023 99.917 36.023L101.801 33.8246C101.801 33.8246 102.065 33.5105 101.801 33.2979C101.541 33.0854 100.618 32.7745 99.3396 32.7745C98.0611 32.7745 96.1735 33.1171 96.6335 33.8246Z" fill="#242227"/>
<path d="M96.6335 44.6993L98.4386 42.65C98.4386 42.65 98.7495 42.1551 99.1778 42.1551C99.6029 42.1551 99.917 42.5009 99.917 42.5009L101.801 44.6993C101.801 44.6993 102.065 45.0103 101.801 45.226C101.541 45.4385 100.618 45.7494 99.3396 45.7494C98.0611 45.7494 96.1735 45.4068 96.6335 44.6993Z" fill="#242227"/>
<path d="M104.632 36.4441L102.581 38.249C102.581 38.249 102.089 38.562 102.089 38.9869C102.089 39.415 102.434 39.7249 102.434 39.7249L104.632 41.6128C104.632 41.6128 104.945 41.8748 105.156 41.6128C105.37 41.3509 105.683 40.4309 105.683 39.1498C105.683 37.872 105.338 35.9841 104.632 36.4441Z" fill="#242227"/>
<path d="M94.1737 36.4467L96.2238 38.2488C96.2238 38.2488 96.7168 38.5628 96.7168 38.9897C96.7168 39.4167 96.3714 39.7275 96.3714 39.7275L94.1737 41.6144C94.1737 41.6144 93.8629 41.8781 93.6494 41.6144C93.4359 41.3507 93.1219 40.4308 93.1219 39.153C93.1219 37.872 93.4673 35.9852 94.1737 36.4467Z" fill="#242227"/>
<path d="M48.4511 64.5975C49.0466 64.9012 49.9639 65.2019 50.9083 65.2019C51.9248 65.2019 52.4631 64.785 52.4631 64.1509C52.4631 63.5466 51.997 63.2013 50.821 62.7845C49.191 62.2248 48.1293 61.3317 48.1293 59.9205C48.1293 58.2682 49.5278 57 51.8376 57C52.9413 57 53.7564 57.2322 54.3368 57.4912L53.8436 59.2596C53.4526 59.072 52.7518 58.7982 51.7955 58.7982C50.8361 58.7982 50.3699 59.2298 50.3699 59.7359C50.3699 60.3522 50.9233 60.6261 52.1864 61.1024C53.9157 61.7336 54.7308 62.6267 54.7308 63.9932C54.7308 65.6186 53.4646 67 50.7759 67C49.6571 67 48.5534 66.7142 48 66.4105L48.4511 64.5975Z" fill="#202C45"/>
<path d="M57.8296 57V62.665C57.8296 64.3584 58.4449 65.2204 59.5312 65.2204C60.6498 65.2204 61.2622 64.4015 61.2622 62.665V57H63.3847V62.5203C63.3847 65.556 61.9186 67 59.4635 67C57.0907 67 55.6924 65.6299 55.6924 62.4895V57H57.8296Z" fill="#202C45"/>
<path d="M67.3566 67L64.3461 57H66.6729L67.8154 61.2292C68.1362 62.4165 68.4301 63.556 68.652 64.804H68.694C68.9309 63.6007 69.2247 62.4165 69.5456 61.2739L70.742 57H72.9999L69.8364 67H67.3566Z" fill="#202C45"/>
</svg>